<svg xmlns="http://www.w3.org/2000/svg" viewBox="0 0 160 160" width="160" height="160">
  <rect width="160" height="160" rx="20" fill="#FFFFFF"/>
  <rect x="4" y="4" width="152" height="152" rx="16" fill="none" stroke="#E2E8F0" stroke-width="2"/>
  <!-- Bagan Green & Cyan Arch -->
  <g transform="translate(80, 52)">
    <circle cx="0" cy="0" r="28" fill="#ECFDF5"/>
    <path d="M -22 12 C -22 -14, 0 -24, 22 -12 C 16 -18, 0 -20, -14 0 Z" fill="#059669"/>
    <path d="M 22 -12 C 22 14, 0 24, -22 12 C -16 18, 0 20, 14 0 Z" fill="#0284C7"/>
    <!-- Medical Cross -->
    <rect x="-3" y="-12" width="6" height="24" rx="1.5" fill="#FFFFFF"/>
    <rect x="-12" y="-3" width="24" height="6" rx="1.5" fill="#FFFFFF"/>
  </g>
  <!-- Typography -->
  <text x="80" y="106" font-family="Arial, sans-serif" font-size="15" font-weight="900" fill="#059669" text-anchor="middle">BAGAN</text>
  <text x="80" y="122" font-family="Arial, sans-serif" font-size="8.5" font-weight="900" fill="#0284C7" text-anchor="middle" letter-spacing="1">SPECIALIST CENTRE</text>
  <text x="80" y="136" font-family="Arial, sans-serif" font-size="7" font-weight="700" fill="#64748B" text-anchor="middle">BUTTERWORTH · SEBERANG PERAI</text>
  <text x="80" y="148" font-family="Arial, sans-serif" font-size="6.5" font-weight="600" fill="#059669" text-anchor="middle">MAINLAND TERTIARY CARE</text>
</svg>