<svg xmlns="http://www.w3.org/2000/svg" viewBox="0 0 120 120" width="120" height="120">
  <defs>
    <linearGradient id="glenGrad" x1="0%" y1="0%" x2="100%" y2="100%">
      <stop offset="0%" stop-color="#004D40"/>
      <stop offset="100%" stop-color="#00796B"/>
    </linearGradient>
    <linearGradient id="glenGold" x1="0%" y1="0%" x2="100%" y2="100%">
      <stop offset="0%" stop-color="#80CBC4"/>
      <stop offset="100%" stop-color="#26A69A"/>
    </linearGradient>
  </defs>
  <rect width="120" height="120" rx="24" fill="url(#glenGrad)" stroke="#00897B" stroke-width="2"/>
  <g transform="translate(60, 48)">
    <path d="M 0 -26 C 10 -20, 14 -8, 0 0 C -14 -8, -10 -20, 0 -26 Z" fill="#80CBC4"/>
    <path d="M -22 -4 C -20 8, -8 14, 0 0 C -8 -14, -20 -10, -22 -4 Z" fill="#4DB6AC"/>
    <path d="M 22 -4 C 20 8, 8 14, 0 0 C 8 -14, 20 -10, 22 -4 Z" fill="#26A69A"/>
    <circle cx="0" cy="0" r="4" fill="#E0F2F1"/>
    <circle cx="0" cy="-12" r="2" fill="#FFF"/>
    <circle cx="-10" cy="-2" r="2" fill="#FFF"/>
    <circle cx="10" cy="-2" r="2" fill="#FFF"/>
  </g>
  <text x="60" y="88" font-family="Georgia, serif" font-size="11" font-weight="bold" fill="#FFFFFF" text-anchor="middle" letter-spacing="1">GLENEAGLES</text>
  <text x="60" y="101" font-family="system-ui, -apple-system, sans-serif" font-size="7.5" font-weight="700" fill="#80CBC4" text-anchor="middle" letter-spacing="1.5">HOSPITAL PENANG</text>
</svg>